# xmcd CD database file
#
# Track frame offsets:
#	150
#	18355
#	42878
#	60389
#	81945
#	99869
#	120581
#	145177
#	165933
#	182764
#	193871
#	213445
#	228313
#	247284
#	267672
#	290092
#
# Disc length: 4126 seconds
#
# Revision: 1
# Processed by: cddbd v1.5.2PL0 Copyright (c) Steve Scherf et al.
# Submitted via: CDex 1.78
#
DISCID=e4101c10
DTITLE=Fabio Concato - La storia 1978 2003
DYEAR=2007
DGENRE=Pop
TTITLE0=Domenica bestiale
TTITLE1=Gigi
TTITLE2=Fiore di maggio
TTITLE3=Ti ricordo ancora
TTITLE4=Provaci tu
TTITLE5=Bell' Italia
TTITLE6=051...
TTITLE7=Tienimi dentro te
TTITLE8=Guido piano
TTITLE9=Rosalina
TTITLE10=Speriamo che piova
TTITLE11=Prendi la luna
TTITLE12=E' festa
TTITLE13=Ciao Ninin
TTITLE14=In trattoria
TTITLE15=Portati via
EXTD=YEAR: 2007
EXTT0=
EXTT1=
EXTT2=
EXTT3=
EXTT4=
EXTT5=
EXTT6=
EXTT7=
EXTT8=
EXTT9=
EXTT10=
EXTT11=
EXTT12=
EXTT13=
EXTT14=
EXTT15=
PLAYORDER=
